# AST/ASF file generated using VICON BodyLanguage
# -----------------------------------------------
:version 1.10
:name VICON
:units
  mass 1.0
  length 0.45
  angle deg
:documentation
   .ast/.asf automatically generated from VICON data using
   VICON BodyBuilder and BodyLanguage model FoxedUp or BRILLIANT.MOD
:root
   order TX TY TZ RX RY RZ
   axis XYZ
   position 0 0 0  
   orientation 0 0 0 
:bonedata
  begin
     id 1 
     name lhipjoint
     direction 0.700308 -0.549349 0.455834 
     length 2.59063 
     axis 0 0 0  XYZ
  end
  begin
     id 2 
     name lfemur
     direction 0.34202 -0.939693 0  
     length 6.31066  
     axis 0 0 20  XYZ
    dof rx ry rz
    limits (-160.0 20.0)
           (-70.0 70.0)
           (-60.0 70.0)
  end
  begin
     id 3 
     name ltibia
     direction 0.34202 -0.939693 0   
     length 7.36093   
     axis 0 0 20   XYZ
    dof rx
    limits (-10.0 170.0)
  end
  begin
     id 4 
     name lfoot
     direction 0.0905332 -0.248738 0.96433   
     length 2.0233   
     axis -90 7.62852e-016 20   XYZ
    dof rx rz
    limits (-45.0 90.0)
           (-70.0 20.0)
  end
  begin
     id 5 
     name ltoes
     direction 1.53573e-011 -4.21855e-011 1   
     length 1.01524   
     axis -90 7.62852e-016 20   XYZ
    dof rx
    limits (-90.0 20.0)
  end
  begin
     id 6 
     name rhipjoint
     direction -0.61416 -0.607328 0.503944   
     length 2.34332  
     axis 0 0 0  XYZ 
  end
  begin
     id 7 
     name rfemur
     direction -0.34202 -0.939693 0   
     length 6.58548   
     axis 0 0 -20   XYZ
    dof rx ry rz
    limits (-160.0 20.0)
           (-70.0 70.0)
           (-70.0 60.0)
  end
  begin
     id 8 
     name rtibia
     direction -0.34202 -0.939693 0   
     length 7.20707   
     axis 0 0 -20   XYZ
    dof rx
    limits (-10.0 170.0)
 end
 begin
     id 9 
     name rfoot
     direction -0.136772 -0.375778 0.916561   
     length 1.92184  
     axis -90 -7.62852e-016 -20   XYZ
    dof rx rz
    limits (-45.0 90.0)
           (-20.0 70.0)
  end
  begin
     id 10 
     name rtoes
     direction -1.53535e-011 -4.21828e-011 1   
     length 0.951089   
     axis -90 -7.62852e-016 -20   XYZ
    dof rx
    limits (-90.0 20.0)
  end
  begin
     id 11 
     name lowerback
     direction -0.0444974 0.988086 -0.147332   
     length 1.9609   
     axis 0 0 0   XYZ
    dof rx ry rz
    limits (-20.0 45.0)
           (-30.0 30.0)
           (-30.0 30.0)
  end
  begin
     id 12 
     name upperback
     direction 0.00613146 0.999513 0.0306081   
     length 1.94944   
     axis 0 0 0   XYZ
    dof rx ry rz
    limits (-20.0 45.0)
           (-30.0 30.0)
           (-30.0 30.0)
  end
  begin
     id 13 
     name thorax
     direction 0.0254621 0.994518 0.101418   
     length 2.0119   
     axis 0 0 0   XYZ
    dof rx ry rz
    limits (-20.0 45.0)
           (-30.0 30.0)
           (-30.0 30.0)
  end
  begin
     id 14 
     name lowerneck
     direction 0.0168698 0.977854 0.208608   
     length 1.6375   
     axis 0 0 0   XYZ
    dof rx ry rz
    limits (-20.0 45.0)
           (-30.0 30.0)
           (-30.0 30.0)
  end
  begin
     id 15 
     name upperneck
     direction -0.0283988 0.989338 -0.142843   
     length 1.6851   
     axis 0 0 0   XYZ
    dof rx ry rz
    limits (-20.0 45.0)
           (-30.0 30.0)
           (-30.0 30.0)
  end
  begin
     id 16
     name head
     direction -0.0129422 0.99741 -0.0707489  
     length 1.69029  
     axis 0 0 0   XYZ
    dof rx ry rz
    limits (-20.0 45.0)
           (-30.0 30.0)
           (-30.0 30.0)
  end
  begin
     id 17 
     name lclavicle
     direction 0.820295 0.564628 -0.0911715  
     length 3.16484  
     axis 0 0 0   XYZ
    dof ry rz
    limits (-20.0 10.0)
           (0.0 20.0)
  end
  begin
     id 18 
     name lhumerus
     direction 1 -4.48969e-011 1.00186e-027   
     length 5.17853   
     axis 180 -30 -90   XYZ
    dof rx ry rz
    limits (-60.0 90.0)
           (-90.0 90.0)
           (-90.0 90.0)
  end
  begin
     id 19
     name lradius
     direction 1 -4.48966e-011 -1.52922e-027   
     length 3.40399   
     axis 180 -30 -90   XYZ
    dof rx
    limits (-10.0 170.0)
  end
  begin
     id 20
     name lwrist
     direction 1 -4.48981e-011 -3.80893e-027   
     length 1.70199   
     axis 1.1049e-015 90 90   XYZ
    dof ry
    limits (-180.0 0.0)
 end
  begin
     id 21 
     name lhand
     direction 1 -4.48957e-011 -7.61786e-027   
     length 0.708964   
     axis 4.86085e-015 90 90   XYZ
    dof rx rz
    limits (-90.0 90.0)
           (-45.0 45.0)
  end
  begin
     id 22 
     name lfingers
     direction 1 -4.48929e-011 -1.52357e-026   
     length 0.571585   
     axis 9.7217e-015 90 90   XYZ
    dof rx
    limits (0.0 90.0)
  end
  begin
     id 23
     name lthumb
     direction 0.707107 -6.34905e-011 0.707107   
     length 0.820685   
     axis -90 45 2.85299e-015   XYZ
    dof rx rz
    limits (-45.0 45.0)
           (-45.0 45.0)
  end
  begin
     id 24 
     name rclavicle
     direction -0.858602 0.463947 -0.218075   
     length 3.35137  
     axis 0 0 0   XYZ 
    dof ry rz
    limits (-10.0 20.0)
           (-20.0 0.0)
  end
  begin
     id 25 
     name rhumerus
     direction -1 -4.48969e-011 -1.98511e-027  
     length 5.42351   
     axis 180 30 90   XYZ
    dof rx ry rz
    limits (-90.0 60.0)
           (-90.0 90.0)
           (-90.0 90.0)
  end
  begin
     id 26 
     name rradius
     direction -1 -4.48961e-011 -2.82624e-027   
     length 3.42066   
     axis 180 30 90   XYZ
    dof rx
    limits (-10.0 170.0)
  end
  begin
     id 27 
     name rwrist
     direction -1 -4.48966e-011 -3.80893e-027   
     length 1.71033   
     axis 1.1049e-015 -90 -90   XYZ
    dof ry
    limits (-180.0 0.0)
  end
  begin
     id 28
     name rhand
     direction -1 -4.48964e-011 -7.61786e-027   
     length 0.743608   
     axis 4.86085e-015 -90 -90   XYZ
    dof rx rz
    limits (-90.0 90.0)
           (-45.0 45.0)
  end
  begin
     id 29
     name rfingers
     direction -1 -4.48961e-011 -1.52357e-026   
     length 0.599516   
     axis 9.7217e-015 -90 -90   XYZ
    dof rx
    limits (0.0 90.0)
  end
  begin
     id 30
     name rthumb
     direction -0.707107 -6.34913e-011 0.707107   
     length 0.860789   
     axis -90 -45 -2.85299e-015   XYZ
    dof rx rz
    limits (-45.0 45.0)
           (-45.0 45.0)
  end
:hierarchy
  begin
    root lhipjoint rhipjoint lowerback
    lhipjoint lfemur
    lfemur ltibia
    ltibia lfoot
    lfoot ltoes
    rhipjoint rfemur
    rfemur rtibia
    rtibia rfoot
    rfoot rtoes
    lowerback upperback
    upperback thorax
    thorax lowerneck lclavicle rclavicle
    lowerneck upperneck
    upperneck head
    lclavicle lhumerus
    lhumerus lradius
    lradius lwrist
    lwrist lhand lthumb
    lhand lfingers
    rclavicle rhumerus
    rhumerus rradius
    rradius rwrist
    rwrist rhand rthumb
    rhand rfingers
  end

#!OML:ASF E:\mmandel\Project 1\Capture day 1\Session 2\Subject.ASF
:FULLY-SPECIFIED
:DEGREES
469
root 10.6637 8.61603 -0.0122668 100.791 85.6508 66.3672
lowerback 33.6264 1.72986 -3.89716
upperback 7.77949 1.32973 -3.63342
thorax -8.53009 1.03656 -2.30316
lowerneck -22.458 3.49046 5.97194
upperneck 12.7798 4.07864 -6.5025
head 7.86539 1.58566 -2.6102
rclavicle -6.52014e-014 -8.04084e-014
rhumerus 41.7245 12.1131 -70.6224
rradius 26.2018
rwrist -362.173
rhand -17.379 24.6327
rfingers 7.12502
rthumb 8.86961 -5.16085
lclavicle -6.52014e-014 -8.04084e-014
lhumerus 41.7299 -32.1914 42.7354
lradius 32.6697
lwrist 34.3665
lhand -24.2801 -29.1975
lfingers 7.12502
lthumb 2.20684 0.770844
rfemur -82.8136 -77.1183 21.2212
rtibia 148.68
rfoot -25.7273 13.2409
rtoes -1.89117
lfemur -76.0302 67.6814 4.36291
ltibia 136.506
lfoot -18.4066 -32.6457
ltoes -13.6839
470
root 10.5449 8.64392 -0.00860768 100.663 85.782 66.518
lowerback 34.3446 1.89034 -4.01317
upperback 7.85993 1.48586 -3.52355
thorax -8.70946 1.11961 -2.20431
lowerneck -22.3492 3.55436 6.09203
upperneck 12.6325 4.15543 -6.65076
head 7.80969 1.61654 -2.66898
rclavicle -1.59028e-014 1.83876e-014
rhumerus 42.2091 11.0713 -70.8624
rradius 26.2805
rwrist -361.668
rhand -17.036 24.5902
rfingers 7.12502
rthumb 9.20057 -5.18903
lclavicle -1.59028e-014 1.83876e-014
lhumerus 42.6535 -31.4129 42.9525
lradius 32.3793
lwrist 33.8503
lhand -23.7102 -28.4956
lfingers 7.12502
lthumb 2.75727 1.46634
rfemur -83.4731 -77.6042 22.3066
rtibia 148.595
rfoot -26.6776 13.6183
rtoes -2.75776
lfemur -76.6008 68.816 4.17429
ltibia 136.432
lfoot -19.044 -33.8821
ltoes -13.4621
471
root 10.4013 8.65107 -0.0214149 106.829 85.6634 72.2073
lowerback 34.1205 1.7423 -3.8572
upperback 7.94443 1.37966 -3.51971
thorax -8.53425 1.07002 -2.23375
lowerneck -22.3407 3.59306 6.15711
upperneck 12.5227 4.19853 -6.73001
head 7.77798 1.63362 -2.69981
rclavicle -2.98177e-014 -8.28932e-014
rhumerus 42.9649 10.0525 -71.0077
rradius 26.2494
rwrist -361.324
rhand -17.0383 24.7974
rfingers 7.12502
rthumb 9.19835 -4.98196
lclavicle -2.98177e-014 -8.28932e-014
lhumerus 43.6974 -30.616 42.9773
lradius 32.1504
lwrist 33.3912
lhand -23.152 -27.9283
lfingers 7.12502
lthumb 3.29634 2.02598
rfemur -90.1239 -78.9818 28.3915
rtibia 148.94
rfoot -27.8323 14.4236
rtoes -5.6163
lfemur -81.5671 69.4598 0.0497585
ltibia 136.736
lfoot -19.7291 -34.2652
ltoes -15.5955
472
root 10.2613 8.68059 -0.0322667 106.783 85.5403 72.1708
lowerback 34.6894 1.82449 -3.99814
upperback 8.01143 1.42569 -3.51159
thorax -8.66982 1.10245 -2.18452
lowerneck -22.487 3.61557 6.0722
upperneck 12.6019 4.23772 -6.6574
head 7.82743 1.65204 -2.65593
rclavicle 3.18055e-014 1.23246e-014
rhumerus 43.8337 9.22125 -70.9392
rradius 26.1304
rwrist -361.174
rhand -17.1645 25.2346
rfingers 7.12502
rthumb 9.07658 -4.5501
lclavicle 3.18055e-014 1.23246e-014
lhumerus 44.737 -29.7842 42.971
lradius 31.962
lwrist 33.0539
lhand -22.7904 -27.6835
lfingers 7.12502
lthumb 3.64547 2.26503
rfemur -94.1858 -78.9475 32.094
rtibia 148.992
rfoot -27.048 13.725
rtoes -1.50194
lfemur -84.0744 69.9315 -2.30418
ltibia 136.707
lfoot -19.8183 -34.4892
ltoes -15.8831
473
root 10.1272 8.71094 -0.0429074 107.19 85.4615 72.6383
lowerback 35.4131 1.90277 -4.09625
upperback 7.97633 1.47166 -3.44074
thorax -8.8507 1.13479 -2.11852
lowerneck -22.8081 3.63191 5.84655
upperneck 12.8931 4.29446 -6.48585
head 7.97229 1.6766 -2.55355
rclavicle 0 5.9039e-014
rhumerus 44.6653 8.40025 -70.8688
rradius 26.0456
rwrist -360.973
rhand -17.2757 25.6413
rfingers 7.12502
rthumb 8.96928 -4.14802
lclavicle 0 5.9039e-014
lhumerus 45.7583 -28.86 43.1138
lradius 31.8363
lwrist 32.8515
lhand -22.1839 -26.9906
lfingers 7.12502
lthumb 4.23122 2.94709
rfemur -97.5733 -79.0426 35.2226
rtibia 148.936
rfoot -27.3016 14.3284
rtoes -1.53192
lfemur -86.6558 70.0369 -4.74311
ltibia 136.589
lfoot -19.134 -34.9754
ltoes -14.2927
474
root 9.97939 8.72031 -0.0725534 118.046 85.2036 83.3552
lowerback 35.8299 1.40454 -3.43113
upperback 8.02823 1.09441 -3.40432
thorax -8.95259 0.963233 -2.2962
lowerneck -22.2168 3.67612 6.55227
upperneck 11.7877 4.31916 -7.56645
head 7.55331 1.63919 -3.02541
rclavicle 1.82882e-014 9.74045e-015
rhumerus 45.612 7.61218 -70.7888
rradius 25.8376
rwrist -360.901
rhand -17.4334 25.9584
rfingers 7.12502
rthumb 8.81717 -3.83738
lclavicle 1.82882e-014 9.74045e-015
lhumerus 46.8749 -27.9568 43.1656
lradius 31.7142
lwrist 32.9488
lhand -21.3753 -26.0192
lfingers 7.12502
lthumb 5.01194 3.9015
rfemur -105.683 -81.106 42.6399
rtibia 149.104
rfoot -27.652 15.3788
rtoes -1.16088
lfemur -92.0001 69.0456 -9.35698
ltibia 136.795
lfoot -18.3445 -35.3281
ltoes -13.5045
475
root 9.83838 8.74195 -0.0667172 114.59 85.4958 79.7247
lowerback 36.1144 1.7075 -3.68469
upperback 8.02373 1.37364 -3.30033
thorax -9.05589 1.09297 -2.16742
lowerneck -22.1536 3.70393 6.50053
upperneck 11.5032 4.38298 -7.67551
head 7.45562 1.66176 -3.04336
rclavicle 7.95139e-015 5.08889e-014
rhumerus 46.5288 6.68848 -71.0602
rradius 25.5914
rwrist -360.613
rhand -17.6911 26.4545
rfingers 7.12502
rthumb 8.56843 -3.35165
lclavicle 7.95139e-015 5.08889e-014
lhumerus 48.0289 -27.1145 43.0682
lradius 31.5897
lwrist 33.1577
lhand -20.5632 -24.9725
lfingers 7.12502
lthumb 5.79612 4.92826
rfemur -108.999 -79.8333 46.2779
rtibia 149.102
rfoot -27.9742 14.367
rtoes -0.127931
lfemur -94.7765 70.0501 -11.3689
ltibia 136.725
lfoot -17.6169 -36.9179
ltoes -12.518
476
root 9.67937 8.7577 -0.102952 125.066 85.0377 89.8621
lowerback 36.3662 1.17932 -2.98905
upperback 8.0579 0.978291 -3.28435
thorax -9.11799 0.910606 -2.36909
lowerneck -22.1501 3.65207 6.32041
upperneck 11.3261 4.33215 -7.51961
head 7.38434 1.6466 -2.96721
rclavicle -2.50469e-014 -1.88845e-014
rhumerus 47.4242 5.49925 -71.552
rradius 25.4014
rwrist -359.986
rhand -17.597 26.839
rfingers 7.12502
rthumb 8.65924 -2.96341
lclavicle -2.50469e-014 -1.88845e-014
lhumerus 49.2324 -26.5072 42.8846
lradius 31.3242
lwrist 32.7403
lhand -20.64 -24.5494
lfingers 7.12502
lthumb 5.72189 5.35336
rfemur -121.03 -80.8978 57.3796
rtibia 149.33
rfoot -27.6558 14.2845
rtoes 2.77139
lfemur -99.7711 68.422 -15.7414
ltibia 136.974
lfoot -14.8558 -37.6937
ltoes -7.62268
477
root 9.5381 8.7788 -0.107422 122.615 85.2782 87.4288
lowerback 36.9079 1.43434 -3.17893
upperback 8.08226 1.22322 -3.16282
thorax -9.27814 1.02829 -2.24871
lowerneck -22.7082 3.55085 5.67909
upperneck 11.8753 4.25673 -6.78048
head 7.6176 1.63527 -2.62575
rclavicle 7.43455e-014 5.06901e-014
rhumerus 48.3509 4.32144 -72.2569
rradius 25.1446
rwrist -359.15
rhand -17.0907 26.8512
rfingers 7.12502
rthumb 9.14787 -2.9304
lclavicle 7.43455e-014 5.06901e-014
lhumerus 50.3428 -26.2063 42.3706
lradius 30.9505
lwrist 31.7513
lhand -22.033 -25.2333
lfingers 7.12502
lthumb 4.37693 4.70148
rfemur -121.506 -79.7586 57.9988
rtibia 149.258
rfoot -29.5531 15.3897
rtoes -6.45064
lfemur -101.884 69.4827 -17.457
ltibia 136.866
lfoot -11.4485 -39.8179
ltoes -0.325321
478
root 9.39824 8.79482 -0.115045 124.679 85.1957 89.4569
lowerback 37.287 1.40307 -3.12642
upperback 8.12387 1.21425 -3.05732
thorax -9.36574 1.02848 -2.1694
lowerneck -21.9764 3.65076 6.30157
upperneck 10.663 4.36563 -7.80449
head 7.14817 1.64842 -3.0514
rclavicle -3.97569e-015 2.10712e-014
rhumerus 49.3889 3.2986 -72.8103
rradius 24.7606
rwrist -358.361
rhand -16.6004 26.741
rfingers 7.12502
rthumb 9.6209 -3.01927
lclavicle -3.97569e-015 2.10712e-014
lhumerus 51.2903 -25.6844 42.2646
lradius 30.6276
lwrist 30.9658
lhand -22.9945 -25.9046
lfingers 7.12502
lthumb 3.44841 4.04726
rfemur -126.985 -79.822 63.4018
rtibia 149.234
rfoot -31.2577 17.1736
rtoes -8.54684
lfemur -104.852 69.4785 -20.0551
ltibia 136.896
lfoot -10.9046 -40.6607
ltoes 0.0402611
